<?xml version="1.0" encoding="UTF-8"?>
<svg xmlns="http://www.w3.org/2000/svg" viewBox="0 0 191.8 144.25">
  <defs>
    <style>
      .cls-1 {
        fill: #000;
        stroke-width: 0px;
      }

      .cls-2 {
        stroke-linecap: round;
        stroke-linejoin: round;
      }

      .cls-2, .cls-3 {
        fill: none;
        stroke: #000;
        stroke-width: 3px;
      }

      .cls-3 {
        stroke-miterlimit: 10;
      }
    </style>
  </defs>
  <g id="Capa_2" data-name="Capa 2">
    <path class="cls-1" d="M137.84,23.03c-.2-.27-.39-.58-.63-.8-.17-.17-.43-.29-.65-.37-1.4-.51-2.76-1.02-4.18-1.48-.46-.15-.68-.38-.66-.87.02-1.21-.1-2.4.02-3.6.22-2.25.92-4.23,3.41-4.94.2-.05.44-.15.56-.31.31-.39.77-.84.75-1.26,0-.31-.6-.73-1.01-.87-9.27-2.83-18.54-5.62-27.82-8.4-.36-.1-.77-.15-1.13-.1-7.72,1.07-15.44,2.15-23.16,3.22-7.53,1.06-15.05,2.13-22.6,3.14-2.98.39-4.79,2.13-5.42,4.91-.99,4.41-.56,8.66,2.39,12.39-1.11.34-2.23.66-3.34,1.02-.82.27-1.04,1.02-.43,1.6.39.37.9.7,1.41.87,1.36.44,2.15,1.41,2.61,2.71.53,1.43.6,2.91.55,4.4-.02.36-.03.72-.05,1.06-.03.66-.22.97-.89,1.16-1.84.56-3.75,1.04-5.32,2.28v.51c.77.24,1.53.46,2.4.73-1.57,1.45-2.01,3.36-2.4,5.3v3.19c.05.24.1.48.17.7.36,1.4.6,2.85,1.14,4.18.72,1.77,2.01,2.97,3.94,3.58,9.36,2.98,18.68,6.03,28,9.14,1.77.6,3.44.85,5.25.19.9-.34,1.87-.48,2.83-.7,13.57-3.31,27.15-6.6,40.72-9.9.32-.09.61-.37.92-.56-.26-.29-.46-.61-.75-.82-.36-.26-.78-.44-1.19-.6-1.18-.43-2.39-.8-3.55-1.23-.24-.09-.55-.37-.55-.58-.03-1.55-.14-3.12.07-4.67.24-1.94,1.16-3.53,3.26-4.12.38-.1.75-.37,1.04-.66.65-.6.44-1.38-.37-1.67-.49-.17-.97-.32-1.53-.51,2.08-1.6,2.91-3.7,3.29-5.97.1-.55.19-1.09.24-1.65.27-2.9.15-5.74-1.82-8.23,1.28-.31,2.47-.58,3.66-.9.29-.07.55-.31.82-.48ZM92.77,20.06c12.75-2.62,25.43-5.23,38.27-7.87-1.33,2.86-1.12,5.76-.85,8.71-12.56,3.12-25.09,6.26-37.74,9.41.12-3.48.22-6.85.32-10.24ZM59.11,28.26c12.83,2.64,25.53,5.25,38.27,7.87.12,3.41.22,6.75.32,10.24-12.61-3.15-25.14-6.27-37.72-9.41.07-.89.14-1.79.17-2.69.07-2.01-.09-4.02-1.04-6.02ZM58.05,11.8c.49-1.62,1.62-2.1,3.2-1.59,9.66,3.17,19.35,6.32,29.03,9.46.66.22.85.51.82,1.18-.12,2.66-.17,5.3-.26,7.96-.02.46-.05.94-.09,1.47-3.2-.89-6.31-1.77-9.41-2.62-6.94-1.94-13.87-3.89-20.81-5.83-.97-.27-1.62-.92-1.99-1.77-1.16-2.68-1.35-5.45-.49-8.25ZM88.17,62.42c-2.27-.63-4.48-1.24-6.7-1.86-7.84-2.2-15.7-4.4-23.54-6.6-.97-.27-1.62-.92-1.99-1.77-1.14-2.66-1.35-5.4-.51-8.16.53-1.7,1.62-2.18,3.31-1.64,9.65,3.15,19.29,6.31,28.94,9.44.63.2.89.43.85,1.14-.15,3.12-.24,6.24-.36,9.44ZM127.56,47.37c-.12,1.67-.05,3.34-.02,5.01.02.46-.03.7-.55.82-12.31,3.05-24.61,6.12-36.92,9.19-.02,0-.05-.02-.1-.02,0-1.4-.02-2.76.02-4.12.03-1.77.12-3.56.15-5.35.02-.49.15-.73.66-.84,2.35-.46,4.7-.94,7.04-1.41.17-.03.36-.12.49-.07.94.41,1.79.07,2.64-.24,4.01-1.45,8.22-1.99,12.34-2.88,4.74-1.02,9.48-1.98,14.22-2.95.24-.05.49-.07.73-.1-.26,1.01-.65,1.98-.72,2.97ZM132.25,34.3c-.09.37-.2.75-.32,1.12-.49,1.43-1.43,2.25-2.93,2.66-9.55,2.62-19.07,5.34-28.62,8.01-.29.07-.58.15-.97.26-.03-.49-.07-.94-.09-1.36-.09-2.71-.14-5.42-.26-8.13-.03-.66.2-.9.8-1.09,9.58-3.1,19.16-6.2,28.7-9.39,2.3-.77,3.32.29,3.73,2.05.44,1.96.43,3.94-.05,5.88Z"/>
  </g>
  <g id="Capa_4" data-name="Capa 4">
    <rect class="cls-2" x="1.5" y="86.93" width="67.38" height="36.7"/>
    <polyline class="cls-2" points="27.75 123.63 27.75 134.32 15.48 134.32 15.48 142.72 55.19 142.72 55.19 134.32 27.75 134.32"/>
    <line class="cls-2" x1="42.07" y1="123.63" x2="42.07" y2="133.18"/>
    <path class="cls-2" d="M34.77,86.93c.24-14.37-.52-30.47.37-44.87.39-4.1,3.13-6.67,7.2-7.24,4.9-.81,10.11-.46,15.48-.54"/>
    <rect class="cls-2" x="122.92" y="86.95" width="67.38" height="36.7"/>
    <polyline class="cls-2" points="149.16 123.66 149.16 134.34 136.89 134.34 136.89 142.75 176.61 142.75 176.61 134.34 149.16 134.34"/>
    <line class="cls-2" x1="163.48" y1="123.66" x2="163.48" y2="133.2"/>
    <path class="cls-3" d="M133.94,34.3c7.72.36,19.79-2.04,20.77,8.28.78,14.33.1,30.13.32,44.38"/>
  </g>
</svg>