<?xml version="1.0" encoding="UTF-8"?>
<svg id="Capa_1" data-name="Capa 1" xmlns="http://www.w3.org/2000/svg" viewBox="0 0 1044.8 1051.03">
  <defs>
    <style>
      .cls-1 {
        fill: lime;
        stroke: #fff;
        stroke-miterlimit: 10;
      }

      .cls-2 {
        fill: #fff;
      }

      .cls-2, .cls-3 {
        stroke-width: 0px;
      }

      .cls-3 {
        fill: #006a32;
      }
    </style>
  </defs>
  <path class="cls-3" d="M0,730.44c18.02-14.31,39.92-19.79,61.25-26.23,7.57-2.29,9.75-5.8,10.15-13.32,1.13-21.24,1.66-42.29-5.67-62.73-5.37-14.96-14.35-26.03-30.16-31.21-5.88-1.92-11.65-5.62-16.17-9.89-7.1-6.7-4.54-15.42,4.88-18.47,12.76-4.13,25.64-7.9,38.43-11.81-33.91-42.93-38.77-91.64-27.4-142.28,7.19-32,27.95-51.95,62.46-56.52,86.75-11.49,173.38-23.92,260.05-35.97,88.9-12.36,177.79-24.77,266.71-36.97,4.25-.58,8.97-.13,13.09,1.1,106.76,32.02,213.48,64.14,320.1,96.63,4.75,1.45,11.64,6.49,11.73,10.01.12,4.75-5.1,9.87-8.61,14.38-1.43,1.84-4.25,2.97-6.65,3.65-28.59,8.19-36.67,30.94-39.22,56.69-1.35,13.63.01,27.52-.18,41.29-.08,5.78,2.38,8.24,7.8,10.02,16.1,5.3,31.98,11.26,47.89,17.11,2.68.98,5.53,2.23,7.53,4.16,2.81,2.71,4.89,6.17,7.29,9.3-3.15,1.89-6.07,4.6-9.49,5.52-13.59,3.68-27.33,6.79-42.22,10.41,22.77,28.49,24.25,61.26,21.01,94.61-3.22,33.12-10.98,64.67-40.58,87.47,6.5,2.14,12.07,3.9,17.59,5.81,9.56,3.31,11.87,12.44,4.51,19.33-3.44,3.21-7.65,6.38-12.06,7.64-24.08,6.84-34.67,24.92-37.52,47.42-2.23,17.64-1.09,35.74-.79,53.62.04,2.27,3.63,5.54,6.25,6.52,13.49,5.02,27.27,9.29,40.82,14.16,4.79,1.72,9.59,3.9,13.72,6.81,3.42,2.41,5.86,6.21,8.74,9.4-3.55,2.22-6.83,5.57-10.69,6.51-156.23,38.06-312.52,75.9-468.8,113.77-10.9,2.64-22.2,4.19-32.62,8.08-20.68,7.73-39.87,4.62-60.33-2.19-107.28-35.67-214.79-70.63-322.48-105.04-22.04-7.04-37.08-20.68-45.34-41-6.19-15.24-8.9-31.9-13.12-47.94-.72-2.72-1.26-5.48-1.88-8.22,0-12.2,0-24.39,0-36.59,4.48-22.22,9.64-44.14,27.67-60.79-10.16-3.13-18.91-5.83-27.67-8.53,0-1.93,0-3.85,0-5.78ZM443.13,632.65c.43-6.7.96-12.38,1.13-18.07.94-30.14,1.47-60.29,2.89-90.4.38-8-2.24-10.95-9.58-13.32-111.2-35.95-222.29-72.21-333.41-108.41-18.99-6.19-31.83-.84-37.53,18.1-9.64,32.07-7.65,64.04,5.82,94.79,4.32,9.86,11.9,17.18,23.05,20.28,89.15,24.79,178.26,49.74,267.38,74.63,26.42,7.38,52.85,14.75,80.25,22.39ZM413.54,1002.16c1.25-36.67,2.16-71.93,3.86-107.14.41-8.4-1.53-12.06-10.03-14.8-111.21-35.88-222.26-72.25-333.35-108.5-18.78-6.13-31.57-.48-37.43,18.5-9.82,31.78-7.41,63.34,5.59,93.84,4.39,10.29,12.05,17.86,23.53,21.05,78.05,21.67,156.05,43.49,234.07,65.27,37.58,10.49,75.15,21,113.76,31.78ZM542.69,817.35c6.93-1.9,12.76-3.47,18.57-5.09,107.31-30.06,214.57-60.28,321.99-89.97,12.8-3.54,23.87-8.48,29.44-20.73,14.66-32.23,16.78-65.62,5.55-99.18-5.27-15.76-18.33-21.18-33.99-16.08-112.66,36.65-225.28,73.46-337.98,109.99-6.07,1.97-7.67,4.87-7.44,10.97,1.23,32.05,2,64.12,2.99,96.19.13,4.4.55,8.79.88,13.91ZM78.81,609.47c15.68,33.29,12.9,66.56,10.02,100.2,144.88,36.02,289.13,71.89,434.35,108-1.28-40.2-2.49-78.58-3.73-117.64-146.51-30.11-292.6-60.13-440.64-90.55ZM907.03,424.74c-147.87,30.39-293.91,60.39-440.54,90.52-1.25,39.13-2.48,77.76-3.76,117.72,145.53-36.22,289.85-72.13,434.53-108.14-3.3-33.7-5.66-66.63,9.77-100.11ZM876.81,794.72c-4.41.64-7.21.9-9.95,1.46-54.26,11.16-108.61,21.93-162.75,33.67-47.82,10.37-96.64,16.48-142.98,33.26-9.88,3.58-19.66,7.38-30.59,3.02-2.81-1.12-6.87.6-10.29,1.3-25.1,5.11-50.15,10.52-75.31,15.31-6.66,1.27-8.66,4.1-8.8,10.74-.74,33.98-2,67.95-3.02,101.92-.06,2.05.44,4.11.72,6.47,1.92-.36,3.17-.52,4.39-.83,139.49-34.7,278.96-69.52,418.54-103.89,9-2.22,10.79-5.7,9.71-14.26-3.74-29.57-2.92-58.82,10.34-88.18Z"/>
  <path class="cls-2" d="M443.13,632.65c-27.4-7.65-53.83-15.01-80.25-22.39-89.12-24.89-178.23-49.84-267.38-74.63-11.15-3.1-18.74-10.42-23.05-20.28-13.46-30.75-15.46-62.72-5.82-94.79,5.69-18.94,18.54-24.29,37.53-18.1,111.12,36.2,222.21,72.46,333.41,108.41,7.34,2.37,9.96,5.32,9.58,13.32-1.42,30.11-1.95,60.27-2.89,90.4-.18,5.69-.7,11.36-1.13,18.07Z"/>
  <path class="cls-2" d="M413.54,1002.16c-38.61-10.79-76.18-21.29-113.76-31.78-78.02-21.78-156.02-43.6-234.07-65.27-11.47-3.19-19.14-10.76-23.53-21.05-13.01-30.5-15.41-62.06-5.59-93.84,5.86-18.98,18.65-24.62,37.43-18.5,111.09,36.25,222.14,72.61,333.35,108.5,8.5,2.74,10.43,6.4,10.03,14.8-1.7,35.22-2.61,70.47-3.86,107.14Z"/>
  <path class="cls-2" d="M542.69,817.35c-.33-5.13-.75-9.52-.88-13.91-.98-32.06-1.76-64.13-2.99-96.19-.23-6.09,1.36-9,7.44-10.97,112.7-36.54,225.32-73.34,337.98-109.99,15.66-5.1,28.72.32,33.99,16.08,11.23,33.56,9.11,66.96-5.55,99.18-5.57,12.25-16.64,17.2-29.44,20.73-107.41,29.69-214.68,59.91-321.99,89.97-5.81,1.63-11.64,3.2-18.57,5.09Z"/>
  <path class="cls-2" d="M78.81,609.47c148.04,30.42,294.13,60.44,440.64,90.55,1.24,39.06,2.46,77.44,3.73,117.64-145.22-36.11-289.47-71.97-434.35-108,2.88-33.64,5.65-66.91-10.02-100.2Z"/>
  <path class="cls-2" d="M907.03,424.74c-15.44,33.47-13.08,66.41-9.77,100.11-144.68,36-289,71.92-434.53,108.14,1.28-39.96,2.51-78.59,3.76-117.72,146.63-30.13,292.67-60.14,440.54-90.52Z"/>
  <path class="cls-2" d="M876.81,794.72c-13.26,29.36-14.08,58.61-10.34,88.18,1.08,8.55-.71,12.04-9.71,14.26-139.58,34.37-279.04,69.19-418.54,103.89-1.22.3-2.47.47-4.39.83-.28-2.36-.78-4.43-.72-6.47,1.02-33.98,2.28-67.94,3.02-101.92.14-6.63,2.14-9.47,8.8-10.74,25.16-4.8,50.21-10.2,75.31-15.31,3.43-.7,7.48-2.42,10.29-1.3,10.94,4.37,20.71.56,30.59-3.02,46.34-16.78,95.16-22.89,142.98-33.26,54.14-11.74,108.48-22.51,162.75-33.67,2.74-.56,5.55-.83,9.95-1.46Z"/>
  <path class="cls-1" d="M998.98,232.59c-2.5-18.46-8.06-37.66-16.28-55.88-5.16-11.42-11.57-22.48-18.83-32.7-8.69-12.25-18.32-23.96-28.6-34.91-7.37-7.85-15.95-14.84-24.9-20.86-12.49-8.4-25.43-16.33-38.92-22.96-10.64-5.23-22.28-8.52-33.67-12.07-15.84-4.93-32.26-7.07-48.77-7.67-10.67-.38-21.44.21-32.07,1.28-7.54.75-14.47.43-21.09-3.53-6.55-3.93-11.52-14.2-9.65-22.34,1.88-8.17,6.24-15.46,15.03-17.06,10.84-1.98,21.94-3.26,32.95-3.36,13.64-.12,27.49.13,40.9,2.32,16.89,2.75,33.59,7.06,50.07,11.78,10.35,2.96,20.43,7.29,30.09,12.09,10.77,5.35,21.17,11.55,31.28,18.08,8.78,5.67,17.55,11.65,25.23,18.68,11.76,10.77,23.31,21.95,33.58,34.11,9.7,11.48,18.5,23.94,26.11,36.9,7.17,12.2,12.82,25.38,18.14,38.53,7.23,17.88,12.6,36.38,14.1,55.77.36,4.67,1.03,9.49.28,14.03-1.87,11.43-12.73,16.99-21.21,16.72-10.88-.35-20.15-6.63-22.06-18.64-.37-2.3-.93-4.58-1.71-8.31Z"/>
  <path class="cls-1" d="M924.03,238.21c-2.28-14.02-7.47-26.98-13.85-39.61-7.14-14.14-16.57-26.74-28.05-37.24-10.01-9.16-21.62-16.79-33.23-23.94-14.05-8.66-29.89-13.51-46.13-15.7-11.56-1.56-23.44-.85-35.17-1.13-4.92-.12-9.9.25-14.76-.35-10.17-1.24-15.75-10.38-17.63-18.62-2.5-10.95,8.18-24.25,19.31-24.79,13.47-.65,27.02-2.15,40.41-1.3,12.85.82,25.95,2.89,38.18,6.79,14.43,4.6,28.35,11.15,41.92,17.97,13.55,6.81,25.76,15.91,36.33,26.92,7.62,7.93,15.2,15.94,22.23,24.39,10.15,12.21,17.6,26.17,23.86,40.66,6.45,14.92,10.49,30.63,13.07,46.68,1.12,6.94,1.26,13.68-3.1,20.01-5.19,7.53-13.45,11.06-23.87,9.33-7.21-1.2-14.91-8.7-16.66-16.35-1.04-4.55-1.91-9.14-2.86-13.71Z"/>
  <path class="cls-1" d="M894.51,241.27c.63,4.56,2.58,12.44,2.56,20.31-.01,9.35-6.14,17.82-18.33,20.42-8.27,1.76-19.62-2.89-23.19-10.7-2.25-4.92-2.69-10.64-4.22-15.92-1.37-4.74-2.6-9.61-4.75-14.01-10.06-20.57-25.63-35.19-48.29-40.21-10.22-2.27-21.06-1.83-31.63-2.37-8.76-.45-15.62-4.39-19.32-12.01-3.99-8.22-3.86-16.52,2.45-24.38,6.55-8.17,15.37-8.85,24.55-9.17,21.89-.76,42.45,3.81,61.81,14.42,12.67,6.94,23.81,15.65,33.16,26.41,11.14,12.81,19.23,27.53,25.21,47.21Z"/>
  <path class="cls-1" d="M817.23,263.58c3.63,22.29-8.43,41-30.11,46.31-17.65,4.32-41.12-9.81-44.61-25.64-6.05-27.43,9.02-46.55,30.66-50.27,20.83-3.58,38.24,9.13,44.06,29.6Z"/>
</svg>