<?xml version="1.0" encoding="UTF-8"?>
<svg xmlns="http://www.w3.org/2000/svg" viewBox="0 0 162 112.47">
  <defs>
    <style>
      .cls-1 {
        fill: lime;
        stroke: #fff;
        stroke-miterlimit: 10;
      }

      .cls-2 {
        fill: #fff;
      }

      .cls-2, .cls-3 {
        stroke-width: 0px;
      }

      .cls-3 {
        fill: #006a32;
      }
    </style>
  </defs>
  <g id="Capa_1" data-name="Capa 1">
    <path class="cls-3" d="M0,65.41c2.64-2.1,5.86-2.9,8.99-3.85,1.11-.34,1.43-.85,1.49-1.96.17-3.12.24-6.21-.83-9.21-.79-2.2-2.11-3.82-4.43-4.58-.86-.28-1.71-.83-2.37-1.45-1.04-.98-.67-2.26.72-2.71,1.87-.61,3.76-1.16,5.64-1.73-4.98-6.3-5.69-13.45-4.02-20.88,1.05-4.7,4.1-7.63,9.17-8.3,12.73-1.69,25.45-3.51,38.17-5.28C65.57,3.65,78.62,1.83,91.67.04c.62-.09,1.32-.02,1.92.16,15.67,4.7,31.34,9.41,46.99,14.18.7.21,1.71.95,1.72,1.47.02.7-.75,1.45-1.26,2.11-.21.27-.62.44-.98.54-4.2,1.2-5.38,4.54-5.76,8.32-.2,2,0,4.04-.03,6.06-.01.85.35,1.21,1.15,1.47,2.36.78,4.69,1.65,7.03,2.51.39.14.81.33,1.11.61.41.4.72.91,1.07,1.37-.46.28-.89.68-1.39.81-1.99.54-4.01,1-6.2,1.53,3.34,4.18,3.56,8.99,3.08,13.89-.47,4.86-1.61,9.49-5.96,12.84.95.31,1.77.57,2.58.85,1.4.49,1.74,1.83.66,2.84-.5.47-1.12.94-1.77,1.12-3.54,1-5.09,3.66-5.51,6.96-.33,2.59-.16,5.25-.12,7.87,0,.33.53.81.92.96,1.98.74,4,1.36,5.99,2.08.7.25,1.41.57,2.01,1,.5.35.86.91,1.28,1.38-.52.33-1,.82-1.57.96-22.93,5.59-45.87,11.14-68.81,16.7-1.6.39-3.26.61-4.79,1.19-3.04,1.13-5.85.68-8.86-.32-15.75-5.24-31.53-10.37-47.34-15.42-3.24-1.03-5.44-3.04-6.66-6.02-.91-2.24-1.31-4.68-1.93-7.04-.11-.4-.18-.8-.28-1.21,0-1.79,0-3.58,0-5.37.66-3.26,1.41-6.48,4.06-8.92-1.49-.46-2.78-.86-4.06-1.25,0-.28,0-.57,0-.85ZM65.05,51.06c.06-.98.14-1.82.17-2.65.14-4.42.22-8.85.42-13.27.06-1.17-.33-1.61-1.41-1.96-16.32-5.28-32.63-10.6-48.94-15.91-2.79-.91-4.67-.12-5.51,2.66-1.42,4.71-1.12,9.4.85,13.91.63,1.45,1.75,2.52,3.38,2.98,13.09,3.64,26.17,7.3,39.25,10.95,3.88,1.08,7.76,2.16,11.78,3.29ZM60.7,105.3c.18-5.38.32-10.56.57-15.73.06-1.23-.22-1.77-1.47-2.17-16.32-5.27-32.63-10.61-48.93-15.93-2.76-.9-4.63-.07-5.49,2.71-1.44,4.67-1.09,9.3.82,13.77.64,1.51,1.77,2.62,3.45,3.09,11.46,3.18,22.91,6.38,34.36,9.58,5.52,1.54,11.03,3.08,16.7,4.67ZM79.66,78.17c1.02-.28,1.87-.51,2.73-.75,15.75-4.41,31.5-8.85,47.26-13.21,1.88-.52,3.5-1.24,4.32-3.04,2.15-4.73,2.46-9.63.81-14.56-.77-2.31-2.69-3.11-4.99-2.36-16.54,5.38-33.07,10.78-49.61,16.15-.89.29-1.13.72-1.09,1.61.18,4.71.29,9.41.44,14.12.02.65.08,1.29.13,2.04ZM11.57,47.66c2.3,4.89,1.89,9.77,1.47,14.71,21.27,5.29,42.44,10.55,63.76,15.85-.19-5.9-.37-11.53-.55-17.27-21.51-4.42-42.95-8.83-64.68-13.29ZM133.14,20.54c-21.71,4.46-43.14,8.87-64.67,13.29-.18,5.74-.36,11.41-.55,17.28,21.36-5.32,42.55-10.59,63.78-15.87-.49-4.95-.83-9.78,1.43-14.69ZM128.7,74.85c-.65.09-1.06.13-1.46.21-7.97,1.64-15.94,3.22-23.89,4.94-7.02,1.52-14.19,2.42-20.99,4.88-1.45.53-2.89,1.08-4.49.44-.41-.16-1.01.09-1.51.19-3.68.75-7.36,1.54-11.05,2.25-.98.19-1.27.6-1.29,1.58-.11,4.99-.29,9.97-.44,14.96,0,.3.06.6.11.95.28-.05.47-.08.64-.12,20.48-5.09,40.95-10.2,61.44-15.25,1.32-.33,1.58-.84,1.43-2.09-.55-4.34-.43-8.63,1.52-12.94Z"/>
    <path class="cls-2" d="M65.05,51.06c-4.02-1.12-7.9-2.2-11.78-3.29-13.08-3.65-26.16-7.32-39.25-10.95-1.64-.46-2.75-1.53-3.38-2.98-1.98-4.51-2.27-9.21-.85-13.91.84-2.78,2.72-3.57,5.51-2.66,16.31,5.31,32.62,10.64,48.94,15.91,1.08.35,1.46.78,1.41,1.96-.21,4.42-.29,8.85-.42,13.27-.03.83-.1,1.67-.17,2.65Z"/>
    <path class="cls-2" d="M60.7,105.3c-5.67-1.58-11.18-3.13-16.7-4.67-11.45-3.2-22.9-6.4-34.36-9.58-1.68-.47-2.81-1.58-3.45-3.09-1.91-4.48-2.26-9.11-.82-13.77.86-2.79,2.74-3.61,5.49-2.71,16.31,5.32,32.61,10.66,48.93,15.93,1.25.4,1.53.94,1.47,2.17-.25,5.17-.38,10.34-.57,15.73Z"/>
    <path class="cls-2" d="M79.66,78.17c-.05-.75-.11-1.4-.13-2.04-.14-4.71-.26-9.41-.44-14.12-.03-.89.2-1.32,1.09-1.61,16.54-5.36,33.07-10.77,49.61-16.15,2.3-.75,4.22.05,4.99,2.36,1.65,4.93,1.34,9.83-.81,14.56-.82,1.8-2.44,2.52-4.32,3.04-15.77,4.36-31.51,8.79-47.26,13.21-.85.24-1.71.47-2.73.75Z"/>
    <path class="cls-2" d="M11.57,47.66c21.73,4.47,43.17,8.87,64.68,13.29.18,5.73.36,11.37.55,17.27-21.32-5.3-42.49-10.56-63.76-15.85.42-4.94.83-9.82-1.47-14.71Z"/>
    <path class="cls-2" d="M133.14,20.54c-2.27,4.91-1.92,9.75-1.43,14.69-21.24,5.29-42.42,10.56-63.78,15.87.19-5.87.37-11.54.55-17.28,21.52-4.42,42.96-8.83,64.67-13.29Z"/>
    <path class="cls-2" d="M128.7,74.85c-1.95,4.31-2.07,8.6-1.52,12.94.16,1.26-.1,1.77-1.43,2.09-20.49,5.05-40.96,10.16-61.44,15.25-.18.04-.36.07-.64.12-.04-.35-.11-.65-.11-.95.15-4.99.33-9.97.44-14.96.02-.97.31-1.39,1.29-1.58,3.69-.7,7.37-1.5,11.05-2.25.5-.1,1.1-.36,1.51-.19,1.61.64,3.04.08,4.49-.44,6.8-2.46,13.97-3.36,20.99-4.88,7.95-1.72,15.92-3.3,23.89-4.94.4-.08.81-.12,1.46-.21Z"/>
  </g>
  <g id="Capa_2" data-name="Capa 2">
    <path class="cls-1" d="M154.82,44c.15-2.73-.13-5.65-.81-8.5-.43-1.79-1.05-3.56-1.82-5.23-.92-2.01-1.98-3.96-3.16-5.82-.85-1.33-1.89-2.58-3.02-3.69-1.57-1.55-3.22-3.05-4.98-4.38-1.39-1.05-2.98-1.84-4.52-2.67-2.15-1.15-4.46-1.91-6.82-2.45-1.53-.35-3.1-.56-4.66-.7-1.11-.1-2.1-.34-2.94-1.09-.84-.75-1.27-2.36-.78-3.49.5-1.13,1.32-2.06,2.64-2.05,1.62.01,3.25.13,4.84.42,1.97.36,3.96.78,5.83,1.46,2.36.86,4.65,1.94,6.9,3.07,1.41.71,2.74,1.61,4.01,2.57,1.41,1.07,2.73,2.25,4.01,3.47,1.11,1.06,2.21,2.16,3.12,3.39,1.4,1.88,2.76,3.81,3.9,5.84,1.08,1.92,2.01,3.96,2.75,6.04.7,1.96,1.15,4.01,1.56,6.05.55,2.78.82,5.59.5,8.43-.08.68-.11,1.4-.34,2.03-.58,1.6-2.3,2.1-3.52,1.83-1.56-.35-2.72-1.51-2.67-3.29.01-.34,0-.69-.02-1.24Z"/>
    <path class="cls-1" d="M143.86,42.75c.06-2.08-.34-4.1-.91-6.09-.64-2.24-1.65-4.31-3.02-6.14-1.19-1.6-2.66-3.01-4.13-4.37-1.79-1.64-3.94-2.77-6.22-3.53-1.62-.54-3.36-.77-5.04-1.13-.71-.15-1.43-.24-2.12-.46-1.43-.46-1.99-1.93-2.03-3.17-.06-1.65,1.85-3.27,3.47-3.04,1.96.28,3.96.43,5.86.92,1.83.47,3.66,1.13,5.32,2.03,1.95,1.06,3.78,2.39,5.55,3.74,1.77,1.35,3.28,3,4.5,4.88.88,1.35,1.75,2.72,2.53,4.13,1.13,2.04,1.82,4.26,2.32,6.52.52,2.33.67,4.71.6,7.09-.03,1.03-.19,2.01-1,2.8-.96.94-2.24,1.23-3.7.69-1.01-.37-1.91-1.66-1.95-2.82-.02-.68-.02-1.37-.04-2.06Z"/>
    <path class="cls-1" d="M139.63,41.8c-.04.67.03,1.86-.19,3-.26,1.35-1.38,2.4-3.2,2.44-1.24.03-2.75-.96-3.05-2.18-.19-.77-.1-1.61-.17-2.41-.07-.72-.11-1.46-.3-2.15-.88-3.24-2.73-5.78-5.86-7.13-1.41-.61-2.99-.84-4.5-1.21-1.25-.31-2.13-1.06-2.46-2.26-.35-1.3-.1-2.49,1.02-3.45,1.17-1,2.46-.85,3.79-.65,3.18.49,6.02,1.72,8.52,3.78,1.64,1.35,3,2.91,4.06,4.72,1.25,2.15,2.02,4.5,2.34,7.5Z"/>
    <path class="cls-1" d="M127.87,42.89c-.09,3.31-2.34,5.68-5.61,5.85-2.66.14-5.66-2.54-5.73-4.92-.12-4.12,2.58-6.46,5.8-6.41,3.1.06,5.26,2.37,5.54,5.48Z"/>
  </g>
</svg>